<svg xmlns="http://www.w3.org/2000/svg" style="display: none;">
  
    <symbol id="icon-seta-direita" viewBox="0 0 512 512">
      <path d="m405 238c0 10-3 18-10 26l-186 186c-7 7-16 10-26 10c-10 0-19-3-26-10l-22-22c-7-7-10-16-10-26c0-10 3-18 10-25l139-139l-139-139c-7-7-10-16-10-26c0-10 3-19 10-26l22-21c7-7 16-11 26-11c10 0 19 4 26 11l186 186c7 7 10 16 10 26z"/>
    </symbol>
  
    <symbol id="icon-localizar" viewBox="0 0 512 512">
      <path d="m347 238c0-36-12-66-37-91c-25-25-55-37-91-37c-35 0-65 12-90 37c-25 25-38 55-38 91c0 35 13 65 38 90c25 25 55 38 90 38c36 0 66-13 91-38c25-25 37-55 37-90z m147 237c0 10-4 19-11 26c-7 7-16 11-26 11c-10 0-19-4-26-11l-98-98c-34 24-72 36-114 36c-27 0-53-5-78-16c-25-11-46-25-64-43c-18-18-32-39-43-64c-10-25-16-51-16-78c0-28 6-54 16-78c11-25 25-47 43-65c18-18 39-32 64-43c25-10 51-15 78-15c28 0 54 5 79 15c24 11 46 25 64 43c18 18 32 40 43 65c10 24 16 50 16 78c0 42-12 80-36 114l98 98c7 7 11 15 11 25z"/>
    </symbol>
  
    <symbol id="icon-loja" viewBox="0 0 512 512">
      <path d="m201 439c0 10-3 19-11 26c-7 7-15 10-25 10c-11 0-19-3-26-10c-7-7-11-16-11-26c0-10 4-19 11-26c7-7 15-11 26-11c10 0 18 4 25 11c8 7 11 16 11 26z m256 0c0 10-3 19-11 26c-7 7-15 10-25 10c-11 0-19-3-26-10c-7-7-11-16-11-26c0-10 4-19 11-26c7-7 15-11 26-11c10 0 18 4 25 11c8 7 11 16 11 26z m37-311l0 146c0 5-2 9-5 12c-3 4-7 6-12 7l-298 34c0 2 1 4 1 7c1 2 2 5 2 7c1 2 1 5 1 6c0 3-2 10-7 19l263 0c5 0 9 2 13 5c3 4 5 8 5 13c0 5-2 9-5 13c-4 3-8 5-13 5l-293 0c-5 0-9-2-13-5c-3-4-5-8-5-13c0-3 1-6 3-11c2-5 5-11 9-17c3-7 5-10 5-11l-50-235l-58 0c-5 0-10-2-13-6c-4-3-6-8-6-13c0-5 2-9 6-12c3-4 8-6 13-6l73 0c3 0 5 1 8 2c2 1 4 3 6 4c1 2 2 4 3 7c1 3 2 6 2 8c1 2 1 5 2 8c1 4 1 6 1 8l343 0c5 0 10 2 13 5c4 4 6 8 6 13z"/>
    </symbol>
  
    <symbol id="icon-calendario" viewBox="0 0 512 512">
      <path d="m55 475l82 0l0-82l-82 0z m100 0l92 0l0-82l-92 0z m-100-100l82 0l0-92l-82 0z m100 0l92 0l0-92l-92 0z m-100-110l82 0l0-82l-82 0z m210 210l92 0l0-82l-92 0z m-110-210l92 0l0-82l-92 0z m220 210l82 0l0-82l-82 0z m-110-100l92 0l0-92l-92 0z m-100-247l0-82c0-3-1-5-3-7c-2-2-4-2-7-2l-18 0c-2 0-4 0-6 2c-2 2-3 4-3 7l0 82c0 2 1 5 3 6c2 2 4 3 6 3l18 0c3 0 5-1 7-3c2-1 3-4 3-6z m210 247l82 0l0-92l-82 0z m-110-110l92 0l0-82l-92 0z m110 0l82 0l0-82l-82 0z m9-137l0-82c0-3-1-5-3-7c-2-2-4-2-6-2l-18 0c-3 0-5 0-7 2c-2 2-3 4-3 7l0 82c0 2 1 5 3 6c2 2 4 3 7 3l18 0c2 0 4-1 6-3c2-1 3-4 3-6z m110-18l0 365c0 10-4 19-11 26c-7 7-16 11-26 11l-402 0c-10 0-19-4-26-11c-7-7-11-16-11-26l0-365c0-10 4-19 11-26c7-7 16-11 26-11l36 0l0-27c0-13 5-24 14-33c9-9 20-13 32-13l18 0c13 0 24 4 33 13c9 9 13 20 13 33l0 27l110 0l0-27c0-13 4-24 13-33c9-9 20-13 33-13l18 0c12 0 23 4 32 13c9 9 14 20 14 33l0 27l36 0c10 0 19 4 26 11c7 7 11 16 11 26z"/>
    </symbol>
  
    <symbol id="icon-favoritos" viewBox="0 0 512 512">
      <path d="m494 185c0 4-3 9-8 14l-103 101l24 143c0 1 0 3 0 5c0 4-1 8-3 10c-2 3-4 5-8 5c-4 0-8-2-12-4l-128-67l-128 67c-4 2-8 4-12 4c-4 0-7-2-9-5c-2-2-3-6-3-10c0-1 0-3 1-5l24-143l-104-101c-4-6-7-10-7-14c0-7 6-12 16-13l144-21l64-130c4-8 8-12 14-12c6 0 10 4 14 12l64 130l144 21c10 1 16 6 16 13z"/>
    </symbol>
  
    <symbol id="icon-conteudos" viewBox="0 0 512 512">
      <path d="m487 137c7 10 9 23 5 36l-79 259c-3 12-11 23-22 31c-11 8-22 12-35 12l-263 0c-15 0-29-5-43-15c-13-10-23-23-28-37c-5-13-5-25-1-37c0 0 0-3 1-7c1-5 1-8 1-11c0-2 0-4-1-6c0-3-1-5-1-6c1-2 2-4 3-6c1-2 2-4 4-6c2-3 4-5 5-7c5-7 9-16 13-26c4-10 7-19 9-26c0-2 0-5 0-9c-1-4-1-6 0-8c0-2 2-5 4-8c3-3 5-5 5-7c4-6 8-15 12-26c4-11 7-19 7-26c1-1 0-4 0-9c-1-4-1-7 0-8c1-2 3-5 6-8c4-4 6-6 6-7c4-5 8-13 13-24c4-11 7-20 7-28c1-1 0-4 0-7c-1-3-1-6-1-7c0-2 1-4 3-6c1-1 3-4 5-6c2-3 3-5 5-6c1-2 3-5 4-9c2-3 3-7 5-10c1-3 2-6 4-10c2-4 4-7 6-9c2-3 4-5 7-7c3-2 7-3 11-3c3 0 8 0 13 1l0 1c7-2 12-2 14-2l218 0c14 0 25 5 32 16c8 10 10 23 6 37l-79 259c-7 22-13 37-20 43c-7 7-19 10-37 10l-248 0c-5 0-9 2-11 5c-2 3-2 7 0 12c4 13 18 20 41 20l264 0c5 0 10-2 16-5c5-3 8-6 10-11l85-282c2-5 2-10 2-17c7 3 13 7 17 13z m-304 0c-1 3-1 5 0 7c1 1 3 2 6 2l174 0c2 0 4-1 7-2c2-2 4-4 5-7l6-18c0-3 0-5-1-7c-1-1-3-2-6-2l-173 0c-3 0-5 1-8 2c-2 2-4 4-4 7z m-24 73c-1 3-1 5 0 7c2 2 3 2 6 2l174 0c2 0 5 0 7-2c3-2 4-4 5-7l6-18c1-2 0-5-1-6c-1-2-3-3-5-3l-174 0c-3 0-5 1-7 3c-3 1-4 4-5 6z"/>
    </symbol>
  
</svg>
